<?xml version="1.0" encoding="utf-8"?>
<!-- Generator: Adobe Illustrator 22.0.0, SVG Export Plug-In . SVG Version: 6.00 Build 0)  -->
<svg version="1.1" id="Layer_1" xmlns="http://www.w3.org/2000/svg" xmlns:xlink="http://www.w3.org/1999/xlink" x="0px" y="0px"
	 viewBox="0 0 300 299.7" style="enable-background:new 0 0 300 299.7;" xml:space="preserve">
<style type="text/css">
	.st0{fill:#81826A;}
</style>
<g>
	<g>
		<path class="st0" d="M46.1,57.2h28.3v144.4H46.1V57.2z"/>
	</g>
	<g>
		<path class="st0" d="M100.7,94.5h26.5v15.7h0.8c2.5,0,4.7-0.7,6.4-2c2-1.6,4.5-3.9,7.4-7c3.1-3.2,5.9-5.6,8.4-7.2
			c2.7-1.5,5.8-2.2,9.4-2.2c5.5,0,11.1,1.1,16.9,3.4c5.4,2.4,10.1,5.9,14.3,10.4c4,4.6,7.2,10.4,9.6,17.5c2.4,7,3.6,15,3.6,24.1
			c0,4.6-0.4,9.2-1.2,13.9c-0.8,4.6-1.9,9.1-3.4,13.7c-2.9,8.8-7.8,16-14.7,21.5c-6.7,5.5-15.3,8.2-25.7,8.2
			c-5.8,0-10.6-0.8-14.5-2.4c-3.9-1.6-7-3.5-9.2-5.8c-1.6-1.6-2.6-2.7-3-3.4c-1.2-1.6-2.3-3.2-3.2-4.8l-0.4,55.2h-28.1V140.3V94.5z
			 M133.7,172.3c4.3,5.9,10.4,8.8,18.3,8.8c8,0,14-3.3,17.9-10c3.6-6.7,5.4-14.1,5.4-22.1c0-9.6-1.9-17.5-5.6-23.7
			c-3.7-6.2-9.9-9.2-18.5-9.2c-15.9,0-23.9,11.5-23.9,34.5C127.2,159.1,129.4,166.4,133.7,172.3z"/>
	</g>
	<g>
		<path class="st0" d="M223.7,171.9H254v29.3h-30.3V171.9z"/>
	</g>
</g>
</svg>
